<svg width="25" height="24" viewBox="0 0 25 24" fill="none" xmlns="http://www.w3.org/2000/svg">
<path d="M5.33333 8.66667H20.3333C20.5543 8.66667 20.7663 8.57887 20.9226 8.42259C21.0789 8.26631 21.1667 8.05435 21.1667 7.83333C21.1667 7.61232 21.0789 7.40036 20.9226 7.24408C20.7663 7.0878 20.5543 7 20.3333 7H5.33333C5.11232 7 4.90036 7.0878 4.74408 7.24408C4.5878 7.40036 4.5 7.61232 4.5 7.83333C4.5 8.05435 4.5878 8.26631 4.74408 8.42259C4.90036 8.57887 5.11232 8.66667 5.33333 8.66667ZM20.3333 11.1667H5.33333C5.11232 11.1667 4.90036 11.2545 4.74408 11.4107C4.5878 11.567 4.5 11.779 4.5 12C4.5 12.221 4.5878 12.433 4.74408 12.5893C4.90036 12.7455 5.11232 12.8333 5.33333 12.8333H20.3333C20.5543 12.8333 20.7663 12.7455 20.9226 12.5893C21.0789 12.433 21.1667 12.221 21.1667 12C21.1667 11.779 21.0789 11.567 20.9226 11.4107C20.7663 11.2545 20.5543 11.1667 20.3333 11.1667ZM20.3333 15.3333H5.33333C5.11232 15.3333 4.90036 15.4211 4.74408 15.5774C4.5878 15.7337 4.5 15.9457 4.5 16.1667C4.5 16.3877 4.5878 16.5996 4.74408 16.7559C4.90036 16.9122 5.11232 17 5.33333 17H20.3333C20.5543 17 20.7663 16.9122 20.9226 16.7559C21.0789 16.5996 21.1667 16.3877 21.1667 16.1667C21.1667 15.9457 21.0789 15.7337 20.9226 15.5774C20.7663 15.4211 20.5543 15.3333 20.3333 15.3333Z" fill="#FF5501"/>
</svg>
