<svg width="30" height="40" viewBox="0 0 30 40" fill="none" xmlns="http://www.w3.org/2000/svg">
<path d="M7.31987 8.6055C7.3191 7.54975 7.50703 6.55511 7.89205 5.60708C8.99822 2.88138 11.0478 1.3245 13.9233 0.824124C15.3365 0.578139 16.7582 0.501746 18.157 0.902045C20.3036 1.51701 21.5205 2.9891 21.9537 5.13726C22.0988 5.85688 21.6917 6.46497 21.0492 6.58109C20.3808 6.70179 19.8468 6.31448 19.6741 5.58263C19.2807 3.91727 18.432 3.13806 16.6849 3.00208C14.7468 2.85083 12.8828 3.11362 11.3786 4.49556C10.2052 5.57347 9.69416 6.96229 9.65367 8.60091C9.83548 8.60091 9.98292 8.60091 10.1304 8.60091C14.0233 8.58946 17.9163 8.5757 21.8093 8.5673C22.6733 8.56577 23.5419 8.52605 24.3998 8.59939C26.3111 8.76287 27.9383 10.4275 28.0811 12.3327C28.2782 14.953 28.4532 17.5755 28.6251 20.1973C28.6327 20.3142 28.5502 20.5044 28.4562 20.5503C27.1896 21.1668 25.9131 21.7642 24.6381 22.3654C24.5938 22.386 24.5442 22.3944 24.5724 22.386C24.0957 21.4097 23.6916 20.4227 23.1523 19.5159C22.4036 18.2577 21.357 17.3082 19.859 17.0064C18.6604 16.765 17.5397 17.0194 16.4862 17.616C16.2212 17.7665 15.9545 17.914 15.6879 18.0606C15.1929 18.3334 14.7239 18.2906 14.2571 17.9728C13.7858 17.6512 13.3213 17.3043 12.8102 17.0599C11.2839 16.3303 9.50928 16.6611 8.18692 17.8704C6.88901 19.0568 6.15946 20.577 5.62624 22.2118C5.04489 23.9956 4.77828 25.8382 4.66522 27.7014C4.63542 28.198 4.74619 28.7037 4.80119 29.2965C3.2573 29.3981 1.69277 29.5012 0.0969238 29.6067C0.151927 28.444 0.19929 27.3569 0.255057 26.2698C0.344437 24.5326 0.441456 22.7955 0.531599 21.0583C0.638549 18.9789 0.713414 16.8972 0.852449 14.8193C1.06177 11.6895 3.77906 8.94545 6.89436 8.66661C7.03034 8.65439 7.16479 8.62765 7.31987 8.60473V8.6055Z" fill="#FF5501"/>
<path d="M28.6082 22.3675C28.6571 23.2247 28.6984 24.0467 28.7534 24.8679C28.8993 27.0451 29.0269 29.2238 29.2087 31.3979C29.3439 33.0152 29.3515 34.6003 28.5051 36.0571C27.2981 38.135 25.5044 39.3451 23.0805 39.3627C17.6619 39.4024 12.2426 39.3588 6.82329 39.3558C5.0991 39.355 3.53152 38.9188 2.21909 37.7538C0.528519 36.2535 -0.152141 34.365 0.0281461 32.1283C0.0663425 31.6577 0.239754 31.485 0.69582 31.3666C2.56744 30.8815 4.36649 31.0427 6.12659 31.8173C6.8019 32.1145 7.48714 32.3742 8.25031 32.3444C9.10285 32.3116 9.85761 32.0091 10.5696 31.5675C11.5528 30.9579 12.3602 30.1474 13.1295 29.2987C13.7964 28.563 14.5321 27.9427 15.4923 27.618C15.7444 27.5325 15.9469 27.5477 16.1104 27.7357C16.351 28.0114 16.5955 28.291 16.788 28.6004C17.4793 29.7135 18.2837 30.7211 19.4044 31.4293C20.4823 32.1099 21.6473 32.4529 22.8757 31.9205C24.1354 31.375 25.4311 30.0763 25.3486 28.4324C25.279 27.0443 25.0911 25.6616 24.9253 24.2797C24.8894 23.9794 24.9154 23.8282 25.2248 23.709C26.2317 23.3232 27.224 22.9015 28.2232 22.4959C28.3378 22.4493 28.4577 22.4172 28.6082 22.3683V22.3675Z" fill="white"/>
<path fill-rule="evenodd" clip-rule="evenodd" d="M23.5137 30.0848C24.0003 29.4103 24.1477 28.6303 24.1195 27.8099H24.1202C24.0499 26.1575 23.8124 24.5295 23.3242 22.9474C22.8788 21.5052 22.2677 20.1431 21.1493 19.0774C20.2066 18.179 19.1043 17.7306 17.7781 17.975C17.0554 18.1087 16.4664 18.4983 15.8889 18.9193C15.2059 19.4173 14.8492 19.4173 14.1624 18.9437C14.0902 18.8939 14.019 18.8426 13.9478 18.7913C13.8126 18.6941 13.6776 18.5968 13.536 18.5098C12.1609 17.6626 10.7958 17.7031 9.46044 18.5931C8.69422 19.1034 8.14419 19.8176 7.69118 20.6075C6.80579 22.1499 6.36501 23.8367 6.11749 25.5777C6.10438 25.6696 6.091 25.7615 6.07762 25.8534C5.93973 26.8007 5.80151 27.7502 5.95401 28.7182C6.25424 30.6158 8.07468 31.8228 9.99978 30.7212C10.9111 30.1994 11.5842 29.4332 12.2213 28.6135C12.6857 28.0161 13.1861 27.4248 13.7652 26.9451C14.6307 26.2285 15.429 26.2392 16.2846 26.9604C16.8308 27.421 17.3068 27.9817 17.7468 28.5501C18.4137 29.411 19.1142 30.2223 20.0829 30.7563C21.3403 31.45 22.7192 31.1872 23.5137 30.0848ZM8.91735 24.3965C8.96965 24.4325 9.04527 24.4445 9.14477 24.4411C9.36451 24.4331 9.58463 24.4348 9.81292 24.4365C9.91161 24.4373 10.0118 24.438 10.1142 24.438L10.1144 24.4381C10.121 24.482 10.1265 24.5163 10.1311 24.5447C10.1387 24.5917 10.1436 24.6223 10.1465 24.6533C10.1575 24.7626 10.1565 24.8864 10.1554 25.0102C10.1531 25.2889 10.1508 25.5674 10.2862 25.6785C10.2941 25.6849 10.3023 25.691 10.3107 25.6967C10.4642 25.8008 10.7178 25.7808 10.9747 25.7606C11.1059 25.7503 11.2379 25.7399 11.3579 25.7459C11.5909 25.7573 11.678 25.6626 11.6703 25.4342C11.6624 25.2096 11.664 24.9846 11.6657 24.7453V24.7453V24.7452V24.7451V24.745V24.745C11.6665 24.6402 11.6673 24.5326 11.6673 24.4212H12.9843V23.6993V22.9377C12.9838 22.9377 12.9834 22.9377 12.9829 22.9377V22.9368C12.87 22.9368 12.7619 22.9361 12.657 22.9355C12.4227 22.934 12.205 22.9327 11.9875 22.939C11.8883 22.9419 11.8109 22.9314 11.7565 22.8948C11.6945 22.8523 11.6627 22.7752 11.6627 22.6443C11.6625 22.5699 11.6664 22.4876 11.6703 22.4034L11.6703 22.4034V22.4034V22.4033V22.4033C11.6836 22.1213 11.6978 21.8173 11.5649 21.7108C11.5582 21.7055 11.5513 21.7004 11.5442 21.6956C11.392 21.5909 11.1448 21.6046 10.8975 21.6182C10.7864 21.6243 10.6753 21.6304 10.5727 21.6259C10.5596 21.6253 10.5453 21.6236 10.5308 21.622C10.4892 21.6173 10.4456 21.6123 10.423 21.6304C10.4031 21.6468 10.3814 21.6634 10.3592 21.6803C10.2715 21.7473 10.177 21.8195 10.1617 21.9024C10.1212 22.1239 10.135 22.3585 10.151 22.5861C10.1701 22.8481 10.0762 22.9551 9.8065 22.9406C9.59084 22.9285 9.37445 22.9312 9.14736 22.9341C9.04465 22.9354 8.93974 22.9368 8.83173 22.9368C8.83173 23.0731 8.83283 23.2036 8.83389 23.3301C8.83626 23.6127 8.83846 23.8752 8.82791 24.1369C8.82239 24.2712 8.85185 24.3523 8.91735 24.3965ZM21.7187 23.3993C21.7979 23.5181 21.8446 23.6609 21.8468 23.816C21.8487 23.954 21.8167 24.083 21.7582 24.1952C21.6378 24.4267 21.405 24.587 21.1253 24.6065C21.1145 24.6073 21.1037 24.6079 21.0928 24.6082C20.7636 24.619 20.4792 24.4304 20.3534 24.1518C20.3092 24.0542 20.2845 23.9455 20.2843 23.8305C20.2836 23.4058 20.6273 23.0628 21.0605 23.0574C21.3376 23.054 21.5789 23.1893 21.7187 23.3993ZM19.0168 21.2516C18.6812 21.3354 18.4399 21.6325 18.4379 21.9987C18.4356 22.4334 18.7679 22.7733 19.2026 22.7802C19.2101 22.7803 19.2176 22.7803 19.2251 22.7802C19.4786 22.7771 19.7079 22.6511 19.8515 22.4605C19.9438 22.3379 20.0007 22.1884 20.0057 22.0277C20.0119 21.8216 19.9335 21.6311 19.8018 21.4877C19.6631 21.3365 19.4654 21.2378 19.2456 21.2286C19.2344 21.2281 19.2232 21.2279 19.212 21.2278C19.161 21.2278 19.1114 21.2325 19.0634 21.2415C19.0477 21.2444 19.0321 21.2478 19.0168 21.2516ZM16.9708 24.5016C17.0855 24.5684 17.2169 24.6079 17.3541 24.6094C17.7689 24.6132 18.1494 24.2565 18.1585 23.8524C18.1621 23.6924 18.1087 23.5377 18.0174 23.408C17.8764 23.2073 17.6443 23.0666 17.3908 23.0582C16.9561 23.0437 16.5719 23.4066 16.5696 23.8351C16.568 24.1102 16.7338 24.364 16.9708 24.5016ZM19.9035 25.2867C19.7651 25.0463 19.4999 24.8831 19.1997 24.8872C18.7673 24.8933 18.435 25.2348 18.438 25.6702L18.4373 25.6695C18.4389 25.8521 18.4993 26.017 18.6011 26.1469C18.7416 26.3263 18.9615 26.4389 19.215 26.4394C19.6413 26.4394 20.0004 26.0933 20.0057 25.6754C20.0074 25.5347 19.97 25.4018 19.9035 25.2867Z" fill="white"/>
</svg>
