<svg width="30" height="31" viewBox="0 0 30 31" fill="none" xmlns="http://www.w3.org/2000/svg">
<path d="M5.88267 11.1276C5.08165 12.5765 4.62756 14.2347 4.62756 15.9949C4.62756 17.7602 5.08165 19.4184 5.88267 20.8674V11.1276Z" fill="white"/>
<path d="M15.0357 5.76532C14.1939 5.76532 13.3724 5.86736 12.5867 6.05103V7.66328C13.3673 7.44389 14.1888 7.32144 15.0357 7.32144C19.9082 7.32144 23.8622 11.1939 23.8622 15.9694C23.8622 18.1225 23.0561 20.0867 21.7296 21.6021L21.4796 22.4847L20.9235 24.4388C23.6531 22.5919 25.449 19.5 25.449 16C25.4439 10.347 20.7857 5.76532 15.0357 5.76532Z" fill="white"/>
<path d="M11.6428 4.36224H5.70407L6.82652 6.64796V24.2755L5.70407 26.5663H19.3316L20.5714 22.2347H11.6428V4.36224Z" fill="white"/>
</svg>
