<svg width="30" height="31" viewBox="0 0 30 31" fill="none" xmlns="http://www.w3.org/2000/svg">
<g clip-path="url(#clip0_152_395)">
<path fill-rule="evenodd" clip-rule="evenodd" d="M2.98291 6.00126H27.0073C27.2942 6.00126 27.5282 6.21878 27.5282 6.48237V8.6063H28.5002V9.89007H27.5282V16.5283H28.5002V17.8781H27.5282V20.1008C27.5282 20.3658 27.2932 20.5819 27.0078 20.5819H2.98291C2.69594 20.5819 2.46194 20.3658 2.46194 20.1008V17.9626H1.50177V16.6124H2.46194V10.081H1.50177V8.61913L2.46194 8.6196V6.48095C2.46194 6.2164 2.69594 6.00031 2.98291 6.00031V6.00126ZM3.99451 19.2317H25.9972V7.35674L3.99451 7.35721V19.2317ZM9.7792 13.3947V13.4289C9.7792 13.853 9.40377 14.2006 8.94349 14.2006H7.46748V17.814H5.89737C5.89737 16.61 5.89634 15.4046 5.89634 14.2006H5.8948V14.0762L5.63766 13.8387V12.9506L5.89634 12.7117V11.7214C5.8948 10.7217 5.8948 9.72337 5.8948 8.72457C6.93006 8.72457 7.90977 8.72457 8.94451 8.72457C9.40377 8.72457 9.78023 9.07127 9.78023 9.49634V13.3923L9.7792 13.3947ZM14.9118 8.86372V17.0398C14.9118 17.4649 14.5353 17.8116 14.0761 17.8116H11.5792C11.1189 17.8116 10.7435 17.4635 10.7435 17.0398V8.86372H12.3136V16.477H13.3432V8.86372H14.9118ZM18.5647 8.71269H18.7447C19.205 8.71269 19.5805 9.06082 19.5805 9.48447V12.7582L19.241 13.1002L19.6843 13.5072V17.0384C19.6843 17.4635 19.3079 17.8102 18.8486 17.8102H16.7529C16.7236 17.8102 16.6927 17.8092 16.6629 17.8054H15.9121V13.7399L15.6359 13.4849V12.5968L15.9121 12.3412V8.71032C15.9342 8.71032 18.5426 8.71032 18.5647 8.71032V8.71269ZM17.459 12.3427H18.0643V10.0924H17.459V12.3427ZM17.459 16.4913H18.1302V13.796H17.459V16.4913ZM21.4525 8.71412H23.669C24.1293 8.71412 24.5047 9.06225 24.5047 9.48589V10.7934C24.5125 11.0119 24.5315 11.019 24.3222 11.0176H23.4129C23.1249 11.0223 23.1661 11.019 23.1625 10.7635V10.1166H22.229V16.5459H23.0519V13.5348H22.9105C22.751 13.5348 22.7536 13.5585 22.7536 13.4103V12.5493C22.7536 12.3807 22.7407 12.4011 22.9233 12.4011C23.3949 12.402 23.8593 12.4044 24.3299 12.4058C24.5202 12.4058 24.5032 12.3878 24.5032 12.5635V17.0422C24.5032 17.4673 24.1267 17.814 23.6675 17.814H21.4509C20.9906 17.814 20.6152 17.4663 20.6152 17.0422V9.48732C20.6152 9.06225 20.9922 8.71554 21.4509 8.71554L21.4525 8.71412ZM8.21114 12.8651V10.0582H7.46903V12.8651H8.21114Z" fill="#EE9B1E"/>
<path d="M6.31937 24.1439V21.3H7.22554L7.99182 22.4061L8.75862 21.3H9.6864V24.1439H8.68868V22.5994L7.97022 23.7236H7.75885L7.01622 22.5994V24.1439H6.31937ZM11.7903 24.2023C11.6001 24.2023 11.4302 24.1835 11.2807 24.1458C11.1312 24.1069 10.999 24.054 10.8842 23.9872C10.771 23.9188 10.6745 23.8382 10.5946 23.7454C10.5165 23.6517 10.4518 23.5506 10.4007 23.442C10.3514 23.3321 10.3152 23.2168 10.2922 23.0962C10.2703 22.9753 10.2593 22.8526 10.2593 22.7281C10.2593 22.6046 10.2732 22.4826 10.301 22.3619C10.3284 22.2397 10.3697 22.1237 10.4249 22.0138C10.4801 21.9039 10.5497 21.802 10.6337 21.708C10.7181 21.6142 10.8168 21.5332 10.9299 21.4648C11.0434 21.3964 11.1713 21.3427 11.3136 21.3038C11.4573 21.2648 11.6162 21.2454 11.7903 21.2454C11.9645 21.2454 12.1227 21.2648 12.265 21.3038C12.409 21.3427 12.5376 21.3964 12.6507 21.4648C12.7656 21.5332 12.865 21.6142 12.949 21.708C13.0334 21.802 13.1031 21.9039 13.1583 22.0138C13.2149 22.1237 13.2569 22.2397 13.2843 22.3619C13.3121 22.4826 13.326 22.6046 13.326 22.7281C13.326 22.8526 13.3143 22.9753 13.291 23.0962C13.2677 23.2168 13.2307 23.3321 13.1799 23.442C13.1306 23.5506 13.0659 23.6517 12.9861 23.7454C12.9062 23.8382 12.8097 23.9188 12.6965 23.9872C12.5834 24.054 12.4512 24.1069 12.3 24.1458C12.1505 24.1835 11.9806 24.2023 11.7903 24.2023ZM11.2349 22.7281C11.2349 22.889 11.2473 23.0264 11.2719 23.1404C11.2983 23.2544 11.3347 23.3474 11.381 23.4196C11.429 23.4921 11.4871 23.5452 11.5553 23.5787C11.6249 23.6123 11.7033 23.6291 11.7903 23.6291C11.8774 23.6291 11.9551 23.6123 12.0233 23.5787C12.0933 23.5452 12.1521 23.4921 12.1997 23.4196C12.2491 23.3474 12.2861 23.2544 12.3108 23.1404C12.3372 23.0264 12.3504 22.889 12.3504 22.7281C12.3504 22.567 12.3372 22.4294 12.3108 22.3154C12.2861 22.2002 12.2491 22.1064 12.1997 22.0342C12.1521 21.9605 12.0933 21.9062 12.0233 21.8713C11.9551 21.8362 11.8774 21.8186 11.7903 21.8186C11.7033 21.8186 11.6249 21.8362 11.5553 21.8713C11.4871 21.9062 11.429 21.9605 11.381 22.0342C11.3347 22.1064 11.2983 22.2002 11.2719 22.3154C11.2473 22.4294 11.2349 22.567 11.2349 22.7281ZM13.8989 24.1439V21.3H14.9352C15.0254 21.3 15.1241 21.3033 15.2314 21.31C15.3405 21.3153 15.4495 21.3274 15.5585 21.346C15.6672 21.3635 15.7725 21.389 15.8743 21.4225C15.9758 21.4548 16.0658 21.4977 16.1443 21.5512C16.2242 21.6035 16.2873 21.6685 16.3335 21.7464C16.3815 21.8227 16.4055 21.9139 16.4055 22.02C16.4055 22.083 16.3975 22.146 16.3814 22.209C16.3656 22.2708 16.3366 22.3278 16.2945 22.38C16.2537 22.4322 16.1971 22.4778 16.1247 22.5168C16.0534 22.5557 15.9619 22.5833 15.8501 22.5994C15.9722 22.6061 16.0803 22.6322 16.1746 22.6778C16.2706 22.7218 16.3512 22.7774 16.4163 22.8445C16.4818 22.9116 16.5312 22.986 16.5645 23.0677C16.5994 23.1481 16.6169 23.2279 16.6169 23.3071C16.6169 23.4131 16.5936 23.5164 16.547 23.6167C16.5007 23.7162 16.4223 23.8054 16.3119 23.8846C16.2029 23.9622 16.0584 24.0252 15.8784 24.0736C15.6984 24.1205 15.4749 24.1439 15.2078 24.1439H13.8989ZM14.8745 22.9855V23.6291H15.269C15.3938 23.6291 15.4867 23.5996 15.5477 23.5407C15.6101 23.4803 15.6413 23.4024 15.6413 23.3071C15.6413 23.2507 15.6303 23.2024 15.6084 23.1622C15.5882 23.122 15.5498 23.0892 15.4932 23.0639C15.4366 23.037 15.3581 23.0175 15.2577 23.0055C15.1589 22.9922 15.0312 22.9855 14.8745 22.9855ZM14.8745 22.4707H15.1795C15.2477 22.4707 15.3101 22.4618 15.3667 22.4441C15.4233 22.4254 15.4719 22.4014 15.5127 22.3719C15.5532 22.3425 15.5844 22.3083 15.6063 22.2693C15.6297 22.2304 15.6413 22.1902 15.6413 22.1487C15.6413 22.0844 15.6274 22.0314 15.5997 21.9896C15.5722 21.9481 15.528 21.9153 15.467 21.8913C15.4059 21.8672 15.3267 21.8504 15.2294 21.8409C15.1323 21.8314 15.0141 21.8267 14.8745 21.8267V22.4707ZM17.2747 24.1444V21.3005H18.2503V24.1444H17.2747ZM18.9934 24.1444V21.3005H19.969V23.565H21.0146V24.1444H18.9934ZM21.5001 24.1444V21.3005H23.6606V21.8272H22.4757V22.4284H23.5212V22.9437H22.4757V23.565H23.6606V24.1444H21.5001Z" fill="#EE9B1E"/>
</g>
<defs>
<clipPath id="clip0_152_395">
<rect width="27" height="19" fill="white" transform="translate(1.5 6)"/>
</clipPath>
</defs>
</svg>
