<svg width="66" height="31" viewBox="0 0 66 31" fill="none" xmlns="http://www.w3.org/2000/svg">
<path d="M4.50287 2.31653C6.82203 3.58491 9.17272 4.80463 11.4375 6.1675C11.8756 6.43091 12.1705 7.24405 12.1905 7.81668C12.2764 10.0271 12.2249 12.2431 12.2249 14.8858C13.9113 13.3197 15.3658 11.9711 16.8746 10.5711C18.1316 11.6906 19.3513 12.7728 20.8287 14.087V6.91192H24.1442V17.8578C22.9159 17.8578 21.4443 18.1842 20.2331 17.7633C19.0678 17.3625 18.1716 16.1886 17.0636 15.2781C15.7379 16.495 14.3379 17.6345 13.1497 18.9601C12.7517 19.4039 12.7059 20.3602 12.8233 21.0273C13.2298 23.3351 13.7795 25.6199 13.9828 28.0364C13.7423 27.6184 13.4761 27.2118 13.2642 26.7766C10.9049 21.9378 9.74822 16.7498 8.85777 11.4958C8.68025 10.4508 8.23646 9.74073 7.24294 9.39143C5.65674 8.83311 4.94954 7.72792 4.91518 6.06156C4.89514 5.09381 4.64602 4.13178 4.5 3.16689V2.31653H4.50287Z" fill="white"/>
<path d="M50.9578 28.8982C51.3386 25.388 51.7194 21.8749 52.1231 18.147H41.4893V6.89478H44.782V14.7513H52.0029C52.0029 12.7328 52.1117 10.6742 51.9685 8.62986C51.8597 7.05512 52.4295 6.25629 53.8811 5.64644C56.3606 4.60711 58.7399 3.33014 61.5 1.99017C61.1393 3.51052 60.8815 4.71877 60.5466 5.90699C60.475 6.15608 60.1429 6.38228 59.8794 6.51971C59.3784 6.78026 58.8287 6.95205 58.3133 7.18969C56.2661 8.14026 55.9855 8.64418 56.2031 11.095C57.5488 10.4193 58.843 9.7694 60.2803 9.04788C60.0627 11.0807 60.034 12.9847 57.6805 13.7234C56.0829 14.2245 55.3671 15.4356 55.0178 17.0648C54.4251 19.8277 53.6807 22.562 52.8847 25.2735C52.5096 26.559 51.874 27.7673 51.3558 29.0099L50.9549 28.8982H50.9578Z" fill="white"/>
<path d="M36.3041 13.689H39.3562C39.6941 15.0032 39.6569 16.2544 38.649 17.2107C37.395 18.3989 35.8403 18.2987 34.2197 17.9666V15.2151C34.841 15.1664 35.3936 15.1235 36.0292 15.0719C36.1123 14.6511 36.1982 14.2158 36.3041 13.689Z" fill="white"/>
<path d="M36.3671 11.2525C36.5847 9.33992 35.1016 10.0099 34.2111 9.69781V7.0637C36.7994 6.2162 38.9125 7.02648 39.4106 9.04215C39.8287 10.7371 39.425 11.2582 37.7071 11.2497C37.3349 11.2497 36.9598 11.2497 36.3671 11.2497V11.2525Z" fill="white"/>
<path d="M29.4525 11.1724H26.598C25.8449 7.74801 27.8005 6.14463 31.6743 7.00931V9.62911C31.0072 9.68637 30.4088 9.74077 29.756 9.79803C29.6558 10.2504 29.5671 10.6541 29.4525 11.1724Z" fill="white"/>
<path d="M29.7904 15.009C30.4146 15.0434 30.9757 15.0748 31.7603 15.1207C31.7603 15.8135 31.8662 16.5179 31.7202 17.165C31.6371 17.5315 31.1819 18.0268 30.824 18.0926C27.7747 18.6424 26.0854 16.9245 26.5235 13.8007C28.7539 13.2052 29.4096 13.4257 29.7904 15.0119V15.009Z" fill="white"/>
<path d="M46.3195 25.2448V21.4254H44.1063V25.2448C43.5604 25.1284 43.1691 23.86 42.9324 21.4397H40.9539C40.8508 22.6422 40.7477 23.8533 40.6132 25.4052C39.6397 23.7531 39.7027 21.7747 40.5216 21.0274C41.2717 20.3431 45.4147 20.2572 46.308 20.9043C47.1068 21.4855 47.2787 23.8075 46.3195 25.242V25.2448Z" fill="white"/>
<path d="M32.4216 25.6714C31.7402 23.1375 32.0351 21.5485 33.1117 20.8928C34.1939 20.2314 36.8223 20.303 37.604 21.0159C38.2997 21.6515 38.3741 23.9077 37.5667 25.6457C37.3778 24.7982 37.2604 24.2713 37.1201 23.65H33.2605C33.0229 24.2227 32.7938 24.781 32.4245 25.6714H32.4216ZM35.1703 22.5993C35.1703 22.5993 35.1703 22.6078 35.1703 22.6107C35.5482 22.6107 35.9491 22.6909 36.2955 22.5878C36.6248 22.4876 36.8939 22.1955 37.1888 21.9865C36.9111 21.7661 36.6505 21.3824 36.3556 21.3566C35.468 21.2736 34.5633 21.2936 33.6728 21.3566C33.4581 21.3738 33.1145 21.726 33.1117 21.9293C33.1088 22.1497 33.4037 22.5248 33.6213 22.5678C34.1224 22.6622 34.652 22.5993 35.1703 22.5993Z" fill="white"/>
<path d="M30.134 25.302C28.7282 25.302 27.308 25.4051 25.9223 25.2448C25.4642 25.1904 24.7913 24.5003 24.7169 24.0222C24.2702 21.1848 24.9402 20.4776 27.8835 20.489C28.6595 20.489 29.4354 20.6007 30.2084 20.658C30.2084 20.8068 30.2113 20.9586 30.2142 21.1075H25.7304C25.6617 21.7059 25.6188 22.0981 25.5472 22.7366H30.0395C30.0452 22.8998 30.0509 23.0659 30.0538 23.2291H25.6417V24.947H30.1311C30.1311 25.0672 30.1311 25.1846 30.1311 25.3049L30.134 25.302Z" fill="white"/>
<path d="M22.7957 21.2021C22.0713 21.2393 21.3497 21.2765 20.4622 21.3223V25.2391C19.0048 25.2964 19.4257 24.3344 19.3856 23.6959C19.3427 22.9543 19.3742 22.207 19.3742 21.3567C18.9304 21.3252 18.521 21.3137 18.1172 21.2622C17.7708 21.2164 17.4329 21.1248 17.1094 20.8843C19.0249 20.3861 20.9117 20.3173 22.7871 20.7525C22.7871 20.9014 22.7928 21.0532 22.7957 21.2021Z" fill="white"/>
</svg>
